<mxfile host="app.diagrams.net" modified="2024-06-17T08:50:54.781Z" agent="Mozilla/5.0 (Windows NT 10.0; Win64; x64) AppleWebKit/537.36 (KHTML, like Gecko) Chrome/126.0.0.0 Safari/537.36" etag="f8sP51oVuAE9v971l6_K" version="24.5.4" type="github">
  <diagram name="Page-1" id="Iy8SfwH2SdaV4WIMVHWY">
    <mxGraphModel dx="1222" dy="636" grid="1" gridSize="10" guides="1" tooltips="1" connect="1" arrows="1" fold="1" page="1" pageScale="1" pageWidth="850" pageHeight="1100" math="0" shadow="0">
      <root>
        <mxCell id="0" />
        <mxCell id="1" parent="0" />
      </root>
    </mxGraphModel>
  </diagram>
</mxfile>
